#!OML:ASF X:\für Bonn\!DataBase\2005_08_10_Bjorn_Final\c3d\bjorn.ASF
:FULLY-SPECIFIED
:DEGREES
346
root 12.3946 19.2328 2.9726 1141.71 -82.3463 -413.702
lowerback -1.71193 -3.73839 -2.5684
upperback 2.67014 -4.91134 -0.142833
thorax 3.91316 -2.52272 1.02644
lowerneck -1.79799 0.801888 7.01574
upperneck 13.4092 0.641407 -2.07285
head 4.34695 0.440761 -1.77098
rclavicle 5.80451e-014 4.29375e-014
rhumerus -45.308 -19.0065 -78.9977
rradius 50.8339
rwrist -21.6128
rhand -2.95572 4.95648
rfingers 7.12502
rthumb 22.7565 -23.7214
lclavicle 5.80451e-014 4.29375e-014
lhumerus -26.1176 -15.5607 89.1294
lradius 44.045
lwrist -23.7825
lhand -9.5883 -3.5945
lfingers 7.12502
lthumb 16.3801 25.7338
rfemur -33.2918 -9.30157 22.6934
rtibia 38.262
rfoot -12.9062 18.6197
rtoes -6.70525
lfemur 2.11062 10.4386 -13.3204
ltibia 13.1052
lfoot -18.8706 -2.97235
ltoes -17.4813
347
root 12.3286 19.224 2.97704 1142.19 -82.4532 -414.241
lowerback -1.75961 -3.78756 -2.58423
upperback 2.74749 -4.97903 -0.0254618
thorax 4.03541 -2.56071 1.14425
lowerneck -1.93747 0.86153 7.00118
upperneck 13.1904 0.752058 -2.28807
head 4.30783 0.484463 -1.82854
rclavicle -1.92821e-014 7.95139e-015
rhumerus -45.0793 -19.527 -79.036
rradius 50.2641
rwrist -21.4793
rhand -3.5262 5.27582
rfingers 7.12502
rthumb 22.2089 -23.4683
lclavicle -1.92821e-014 7.95139e-015
lhumerus -25.7152 -16.9645 89.3859
lradius 44.1038
lwrist -23.5099
lhand -9.82307 -3.78927
lfingers 7.12502
lthumb 16.154 25.5576
rfemur -33.733 -9.56742 22.7804
rtibia 37.6425
rfoot -12.8204 18.3848
rtoes -6.55451
lfemur 2.77571 10.3903 -13.3534
ltibia 12.4445
lfoot -18.7324 -2.749
ltoes -17.599
348
root 12.261 19.2148 2.98072 1142.67 -82.5799 -414.82
lowerback -1.78162 -3.82879 -2.62386
upperback 2.83638 -5.03626 0.0847393
thorax 4.15658 -2.59456 1.26968
lowerneck -2.07411 0.907546 7.03974
upperneck 13.0001 0.845947 -2.56026
head 4.27681 0.519578 -1.91325
rclavicle 1.15295e-014 6.36111e-015
rhumerus -44.8507 -19.9988 -79.0747
rradius 49.6823
rwrist -21.3506
rhand -4.091 5.61772
rfingers 7.12502
rthumb 21.6666 -23.1899
lclavicle 1.15295e-014 6.36111e-015
lhumerus -25.303 -18.4653 89.6121
lradius 44.1567
lwrist -23.1408
lhand -10.1848 -3.98036
lfingers 7.12502
lthumb 15.8057 25.3944
rfemur -34.1551 -9.84444 22.8598
rtibia 37.0391
rfoot -12.8284 18.1579
rtoes -7.00634
lfemur 3.49724 10.3177 -13.4052
ltibia 11.7423
lfoot -18.5732 -2.46921
ltoes -17.852
349
root 12.1934 19.2039 2.98511 1142.92 -82.6903 -415.169
lowerback -1.79471 -3.87799 -2.63024
upperback 2.9572 -5.10561 0.177597
thorax 4.30233 -2.63406 1.35738
lowerneck -2.27672 0.952078 7.09624
upperneck 12.8242 0.934725 -2.85727
head 4.26144 0.55196 -2.00865
rclavicle -3.18055e-015 9.54166e-015
rhumerus -44.5693 -20.413 -79.1706
rradius 49.1358
rwrist -21.2139
rhand -4.59178 5.88684
rfingers 7.12502
rthumb 21.1856 -22.9755
lclavicle -3.18055e-015 9.54166e-015
lhumerus -24.8613 -20.0499 89.7638
lradius 44.2557
lwrist -22.6286
lhand -10.5511 -4.22179
lfingers 7.12502
lthumb 15.4529 25.1805
rfemur -34.5551 -10.1475 22.9286
rtibia 36.4497
rfoot -12.822 17.9568
rtoes -7.36347
lfemur 4.24341 10.2472 -13.4465
ltibia 11.026
lfoot -18.3775 -2.30669
ltoes -17.5998
350
root 12.1244 19.1917 2.98845 1143.15 -82.8387 -415.518
lowerback -1.77278 -3.91218 -2.67298
upperback 3.06833 -5.1546 0.260058
thorax 4.41994 -2.66435 1.4587
lowerneck -2.454 0.985531 7.19307
upperneck 12.634 1.01152 -3.19685
head 4.23752 0.577912 -2.12428
rclavicle -1.47101e-014 1.90833e-014
rhumerus -44.2796 -20.8599 -79.2087
rradius 48.5133
rwrist -20.9631
rhand -4.99514 6.23397
rfingers 7.12502
rthumb 20.7981 -22.6714
lclavicle -1.47101e-014 1.90833e-014
lhumerus -24.4498 -21.7761 89.9128
lradius 44.3683
lwrist -21.9519
lhand -11.0189 -4.39307
lfingers 7.12502
lthumb 15.0023 25.0435
rfemur -34.9421 -10.427 22.96
rtibia 35.8748
rfoot -12.7924 17.7475
rtoes -7.40766
lfemur 5.02334 10.1042 -13.5451
ltibia 10.277
lfoot -18.2126 -1.96028
ltoes -17.9423
351
root 12.0547 19.1784 2.99178 1143.22 -82.9682 -415.744
lowerback -1.71844 -3.95397 -2.70723
upperback 3.20875 -5.21609 0.351678
thorax 4.55086 -2.70176 1.56496
lowerneck -2.65767 1.03853 7.18998
upperneck 12.4299 1.10521 -3.41993
head 4.21419 0.613397 -2.18654
rclavicle 1.41137e-014 2.06736e-014
rhumerus -43.9278 -21.2084 -79.2722
rradius 47.8837
rwrist -20.7616
rhand -5.38713 6.52085
rfingers 7.12502
rthumb 20.4214 -22.4253
lclavicle 1.41137e-014 2.06736e-014
lhumerus -24.037 -23.5523 90.0082
lradius 44.578
lwrist -21.1152
lhand -11.4316 -4.59876
lfingers 7.12502
lthumb 14.6047 24.867
rfemur -35.2911 -10.7743 23.0077
rtibia 35.3197
rfoot -12.7357 17.5794
rtoes -7.4245
lfemur 5.86458 9.97403 -13.6171
ltibia 9.49625
lfoot -17.9963 -1.68355
ltoes -18.3612
352
root 11.9829 19.1632 2.99395 1143.35 -83.0801 -416.078
lowerback -1.61514 -3.97291 -2.71277
upperback 3.36882 -5.25054 0.446045
thorax 4.67105 -2.72558 1.66285
lowerneck -2.87176 1.07881 7.16762
upperneck 12.2387 1.17961 -3.62724
head 4.1956 0.639241 -2.24163
rclavicle 5.26779e-014 -1.59028e-014
rhumerus -43.5169 -21.5701 -79.2959
rradius 47.1986
rwrist -20.5291
rhand -5.64905 6.79847
rfingers 7.12502
rthumb 20.1697 -22.1745
lclavicle 5.26779e-014 -1.59028e-014
lhumerus -23.6026 -25.343 90.0917
lradius 44.7915
lwrist -20.3888
lhand -11.8583 -4.73204
lfingers 7.12502
lthumb 14.1935 24.763
rfemur -35.5829 -11.2032 23.0994
rtibia 34.7799
rfoot -12.5575 17.5339
rtoes -6.92282
lfemur 6.78072 9.8408 -13.6514
ltibia 8.6931
lfoot -17.7599 -1.41613
ltoes -18.7749
353
root 11.9095 19.1462 2.99617 1143.45 -83.2225 -416.403
lowerback -1.4732 -3.97451 -2.73153
upperback 3.50923 -5.26238 0.53161
thorax 4.74816 -2.73813 1.7644
lowerneck -3.03968 1.11254 7.09945
upperneck 12.0499 1.24484 -3.78931
head 4.16924 0.660764 -2.27576
rclavicle 8.74653e-015 2.94201e-014
rhumerus -43.1195 -21.886 -79.2937
rradius 46.5026
rwrist -20.3355
rhand -5.89246 7.04531
rfingers 7.12502
rthumb 19.9357 -21.9521
lclavicle 8.74653e-015 2.94201e-014
lhumerus -23.2127 -27.189 90.1444
lradius 45.0506
lwrist -19.6078
lhand -12.1823 -4.85901
lfingers 7.12502
lthumb 13.8813 24.6577
rfemur -35.8599 -11.664 23.1628
rtibia 34.2703
rfoot -12.2959 17.5401
rtoes -6.34199
lfemur 7.77327 9.71669 -13.7189
ltibia 7.80631
lfoot -17.4796 -1.16605
ltoes -19.1793
354
root 11.8338 19.1277 2.99743 1143.43 -83.3386 -416.658
lowerback -1.26342 -3.98259 -2.74702
upperback 3.66206 -5.28651 0.63488
thorax 4.80206 -2.75769 1.88618
lowerneck -3.19019 1.15685 6.98478
upperneck 11.8561 1.32609 -3.93332
head 4.13904 0.689106 -2.29594
rclavicle 1.33186e-014 0
rhumerus -42.697 -22.1422 -79.2497
rradius 45.7644
rwrist -20.1341
rhand -6.00637 7.31461
rfingers 7.12502
rthumb 19.8262 -21.6942
lclavicle 1.33186e-014 0
lhumerus -22.8253 -28.967 90.1775
lradius 45.355
lwrist -18.9814
lhand -12.4311 -4.82237
lfingers 7.12502
lthumb 13.6416 24.7106
rfemur -36.0821 -12.2362 23.2752
rtibia 33.7967
rfoot -11.9304 17.6486
rtoes -5.54267
lfemur 8.91334 9.56646 -13.7515
ltibia 6.74205
lfoot -17.0988 -0.890201
ltoes -19.6527
355
root 11.7568 19.1104 2.99842 1143.14 -83.4547 -416.646
lowerback -1.02995 -3.99207 -2.79038
upperback 3.80614 -5.31307 0.749242
thorax 4.83753 -2.77985 2.03689
lowerneck -3.29379 1.19162 6.85733
upperneck 11.6274 1.40021 -4.09875
head 4.09003 0.712625 -2.32092
rclavicle -4.77083e-015 8.74653e-015
rhumerus -42.2402 -22.315 -79.2084
rradius 44.9841
rwrist -19.9753
rhand -6.11028 7.58724
rfingers 7.12502
rthumb 19.7263 -21.4318
lclavicle -4.77083e-015 8.74653e-015
lhumerus -22.4785 -30.7312 90.1914
lradius 45.7347
lwrist -18.3613
lhand -12.5622 -4.78008
lfingers 7.12502
lthumb 13.5152 24.7613
rfemur -36.2966 -12.7319 23.3263
rtibia 33.3752
rfoot -11.5352 17.717
rtoes -4.34898
lfemur 10.2165 9.38672 -13.7924
ltibia 5.37024
lfoot -16.5343 -0.695363
ltoes -19.8099
356
root 11.6767 19.0934 2.99822 1142.87 -83.5849 -416.656
lowerback -0.794252 -3.98884 -2.82929
upperback 3.92943 -5.32255 0.854954
thorax 4.84782 -2.79277 2.17862
lowerneck -3.39533 1.22369 6.71249
upperneck 11.4557 1.46768 -4.2385
head 4.05754 0.733376 -2.33576
rclavicle -9.54166e-015 -3.97569e-015
rhumerus -41.8428 -22.5112 -79.1169
rradius 44.2068
rwrist -19.7829
rhand -6.13567 7.85805
rfingers 7.12502
rthumb 19.7019 -21.1635
lclavicle -9.54166e-015 -3.97569e-015
lhumerus -22.1729 -32.4559 90.1615
lradius 46.1579
lwrist -17.9015
lhand -12.573 -4.79048
lfingers 7.12502
lthumb 13.5048 24.7516
rfemur -36.5074 -13.155 23.3369
rtibia 33.0063
rfoot -11.1456 17.7494
rtoes -3.09212
lfemur 11.8585 9.21549 -13.8457
ltibia 3.34995
lfoot -15.6477 -0.4796
ltoes -20.0594
